<svg xmlns="http://www.w3.org/2000/svg"  width="41" height="64"><defs><filter id="A" filterUnits="userSpaceOnUse"><feOffset dy="1" in="SourceAlpha"/><feGaussianBlur stdDeviation="1" result="A"/><feFlood flood-opacity=".2"/><feComposite operator="in" in2="A"/><feComposite in="SourceGraphic"/></filter></defs><path d="M30 46.535c-4.75 8.816-9.5 15.964-9.5 15.964s-4.75-7.148-9.5-15.964-9.5-19.301-9.5-25.974c0-5.264 2.127-10.029 5.565-13.479S15.254 1.499 20.5 1.499s9.996 2.134 13.435 5.583S39.5 15.297 39.5 20.561c0 6.673-4.75 17.158-9.5 25.974zM31.242 9.78c-2.75-2.758-6.549-4.464-10.742-4.464S12.503 7.022 9.754 9.78a15.22 15.22 0 0 0-4.449 10.781A15.2 15.2 0 0 0 9.182 30.73c2.412 2.697 5.77 4.527 9.556 4.965l.863.075a12.41 12.41 0 0 0 .899.034 12.41 12.41 0 0 0 .899-.034c.291-.02.576-.048.863-.075a15.15 15.15 0 0 0 9.552-4.965 15.2 15.2 0 0 0 3.881-10.169c0-4.212-1.702-8.023-4.453-10.781zM20.485 27.434c-3.83 0-6.937-3.117-6.937-6.959s3.107-6.958 6.937-6.958 6.936 3.117 6.936 6.958-3.107 6.959-6.936 6.959z" fill="#ffb600" filter="url(#A)" fill-rule="evenodd"/></svg>